<?xml version="1.0" encoding="utf-8"?>
<!-- Generator: Adobe Illustrator 21.0.0, SVG Export Plug-In . SVG Version: 6.00 Build 0)  -->
<svg version="1.1" xmlns="http://www.w3.org/2000/svg" xmlns:xlink="http://www.w3.org/1999/xlink" x="0px" y="0px"
	 viewBox="0 0 1920 1080" style="enable-background:new 0 0 1920 1080;" xml:space="preserve">
<style type="text/css">
	.st0{display:none;}
	.st1{display:inline;}
	.st2{fill:#FFFFFF;}
	.st3{stroke:#000000;stroke-width:4;stroke-miterlimit:10;}
	.st4{stroke:#000000;stroke-width:3;stroke-miterlimit:10;}
	.st5{font-family:'Futura-Bold';}
	.st6{font-size:76.9687px;}
</style>
<g id="Layer_2" class="st0">
	<g class="st1">
		<g>
			<path class="st2" d="M961.2,583.1c-12.6,0-25.3,0-37.9,0c0-12.2,0-24.4,0-36.6c12.6,0,25.3,0,37.9,0
				C961.2,558.7,961.2,570.9,961.2,583.1z M942.4,582.2c0.2-0.2,0.4-0.3,0.5-0.4c1.4-1.8,3-3.5,4.3-5.3c2-2.7,3.9-5.4,5.6-8.3
				c1.1-1.9,1.9-4,2.6-6.1c0.6-1.8,0.3-3.6-0.4-5.4c-1.5-4.5-4.6-7.4-9.1-8.6c-4.6-1.2-8.7-0.1-12.3,2.9c-2,1.7-3.2,4-3.9,6.4
				c-0.7,2.3-0.5,4.6,0.3,6.9c1.1,2.9,2.5,5.6,4.5,8c2,2.5,3.9,5,5.9,7.4C940.9,580.5,941.6,581.3,942.4,582.2z"/>
			<path d="M942.4,582.2c-0.8-0.9-1.5-1.7-2.2-2.5c-2-2.5-3.9-5-5.9-7.4c-1.9-2.4-3.4-5.1-4.5-8c-0.9-2.3-1-4.6-0.3-6.9
				c0.7-2.5,1.9-4.7,3.9-6.4c3.6-3,7.8-4,12.3-2.9c4.6,1.2,7.6,4.1,9.1,8.6c0.6,1.8,0.9,3.6,0.4,5.4c-0.7,2.1-1.4,4.2-2.6,6.1
				c-1.7,2.9-3.7,5.6-5.6,8.3c-1.3,1.8-2.8,3.5-4.3,5.3C942.7,581.9,942.6,582,942.4,582.2z M942.4,550.8c-5.2,0-8.9,4.1-8.9,8.5
				c0,4.4,3.6,8.6,8.9,8.6c5.3,0,8.8-4.1,8.9-8.5C951.3,554.9,947.5,550.8,942.4,550.8z"/>
			<path class="st2" d="M942.4,550.8c5.1,0,8.9,4.2,8.8,8.6c0,4.4-3.6,8.5-8.9,8.5c-5.3,0-8.9-4.2-8.9-8.6
				C933.5,554.9,937.2,550.7,942.4,550.8z M942.4,554.2c-2.6-0.1-5.4,2.2-5.4,5.1c0.1,2.8,2.5,5.1,5.3,5.1c2.9,0,5.3-2.3,5.4-5.1
				C947.8,556.5,944.9,554,942.4,554.2z"/>
			<path d="M942.4,554.2c2.6-0.2,5.4,2.3,5.4,5.1c-0.1,2.8-2.5,5.1-5.4,5.1c-2.9,0-5.3-2.4-5.3-5.1
				C937,556.4,939.8,554.1,942.4,554.2z"/>
		</g>
	</g>
	<rect x="933.3" y="583.5" class="st1" width="17.9" height="36.1"/>
</g>
<g id="Layer_3">
	<g>
		<path class="st3" d="M930.1,103.9c-0.2,2.7-0.7,5.5-1.9,8.2c-0.1,0.3-0.2,0.6-0.4,0.9c-1.2,2.8-2.3,5.6-3.6,8.3
			c-1.3,2.7-2.7,5.4-4.2,8c-1.4,2.5-2.8,5-4.2,7.4c-1.3,2.2-2.7,4.4-4,6.6c-0.7,1.2-2,1.3-2.8,0.1c0,0,0-0.1-0.1-0.1
			c-1.2-2-2.4-4-3.6-6.1c-1.5-2.5-3-5.1-4.4-7.7c-1.4-2.5-2.7-5.1-4.1-7.7c-0.8-1.5-1.5-3-2.1-4.5c-0.8-1.8-1.5-3.7-2.2-5.5
			c-1-2.2-1.5-4.6-1.7-7c-0.2-3,0.3-5.8,1.4-8.5c0.4-1,0.9-1.9,1.5-2.8c2.3-3.8,5.5-6.5,9.4-8.2c2.2-0.9,4.4-1.4,6.7-1.5
			c2.5-0.1,4.9,0.3,7.3,1.2c3.5,1.4,6.5,3.5,8.8,6.7c0.8,1.1,1.5,2.3,2.2,3.6C929.5,97.8,929.9,100.7,930.1,103.9z M910.4,139.8
			c0.1-0.2,0.2-0.3,0.3-0.4c1-1.7,2.1-3.4,3.1-5.1c1.4-2.5,2.9-4.9,4.2-7.5c1.4-2.6,2.7-5.2,4-7.8c0.8-1.6,1.5-3.2,2.2-4.8
			c0.7-1.8,1.4-3.6,2-5.5c1.2-3.8,1.2-7.5-0.3-11.3c-0.7-1.6-1.4-3.1-2.5-4.5c-1-1.3-2.2-2.4-3.5-3.3c-3.4-2.3-7.2-3.3-11.2-2.9
			c-5.1,0.5-9.3,2.9-12.3,7.5c-1.7,2.6-2.7,5.6-2.8,8.9c0,2,0.3,3.9,1,5.8c0.8,1.9,1.4,3.9,2.2,5.8c1.3,2.9,2.8,5.8,4.2,8.7
			c0.6,1.3,1.3,2.6,2,3.8c1.6,2.9,3.2,5.8,4.9,8.6C908.8,137.2,909.6,138.5,910.4,139.8z"/>
		<path class="st3" d="M914,101.3c0.1-2.2-1.7-3.5-3.5-3.5c-2,0-3.7,1.4-3.6,3.6c0.1,2.1,1.4,3.4,3.6,3.4
			C912.6,104.9,914,103.4,914,101.3z"/>
	</g>
</g>
<g id="Layer_1">
	<text transform="matrix(1.0513 0 0 1 796.641 141.4135)" class="st4 st5 st6">TR P</text>
</g>
</svg>
